<?xml version="1.0" encoding="utf-8"?>
<!-- Generator: Adobe Illustrator 21.1.0, SVG Export Plug-In . SVG Version: 6.00 Build 0)  -->
<svg version="1.1" id="svg7065" xmlns:svg="http://www.w3.org/2000/svg"
	 xmlns="http://www.w3.org/2000/svg" xmlns:xlink="http://www.w3.org/1999/xlink" x="0px" y="0px" viewBox="0 0 682.7 682.7"
	 style="enable-background:new 0 0 682.7 682.7;" xml:space="preserve">
<style type="text/css">
	.st0{fill:none;}
	.st1{fill:#555760;}
	.st2{fill:#36383F;}
	.st3{fill:#52DEFF;}
	.st4{fill:#55BAFF;}
	.st5{fill:#EEF6FF;}
	.st6{fill:#DAE6EF;}
	.st7{fill:#A8B3BA;}
	.st8{fill:#879299;}
	.st9{fill:none;stroke:#000000;stroke-width:15;stroke-linecap:round;stroke-linejoin:round;stroke-miterlimit:10;}
	.st10{fill:none;stroke:#000000;stroke-width:15;stroke-linejoin:round;stroke-miterlimit:10;}
	.st11{fill:#543946;}
	.st12{fill:#FAFAF7;}
	.st13{fill:#F5FA2E;}
	.st14{fill:#553C48;}
	.st15{fill:#543A47;}
	.st16{fill:#817F58;}
	.st17{fill:#533746;}
	.st18{fill:#563C49;}
	.st19{fill:#F8FE2D;}
	.st20{fill:#F8F026;}
	.st21{fill:#92793D;}
	.st22{fill:#533846;}
	.st23{fill:#CFC5C8;}
	.st24{fill:#866D79;}
	.st25{fill:#523846;}
	.st26{fill:#543947;}
	.st27{fill:#F8F9E6;}
	.st28{fill:#BDAE32;}
	.st29{fill:#533847;}
	.st30{fill:#523745;}
	.st31{fill:#957D3D;}
	.st32{fill:#C9BFC0;}
	.st33{fill:#F7FC2F;}
	.st34{fill:#E6E174;}
	.st35{fill:#A99839;}
	.st36{fill:#A75247;}
	.st37{fill:#FC684B;}
	.st38{fill:#513646;}
	.st39{fill:#8A733D;}
	.st40{fill:#523646;}
	.st41{fill:#553745;}
	.st42{fill:#5D6B49;}
	.st43{fill:#543845;}
	.st44{fill:#524847;}
	.st45{fill:#7E4449;}
	.st46{fill:#865840;}
	.st47{fill:#593A46;}
	.st48{fill:#CD584B;}
	.st49{fill:#FD684B;}
	.st50{fill:#966F3B;}
	.st51{fill:#573946;}
	.st52{fill:#F5664B;}
	.st53{fill:#F8C12C;}
	.st54{fill:#A98638;}
</style>
<rect y="0" class="st0" width="682.7" height="682.7"/>
<g id="g7081" transform="translate(504.5029,476.3955)">
	<path id="path7083" class="st1" d="M168.2-428.9v375.6c0,20.4-16.5,36.9-36.9,36.9h-588.9c-20.4,0-36.9-16.5-36.9-36.9v-375.6
		c0-20.4,16.5-36.9,36.9-36.9h588.9C151.6-465.8,168.2-449.3,168.2-428.9"/>
</g>
<g id="g7085" transform="translate(504.5029,476.3955)">
	<path id="path7087" class="st2" d="M168.2-428.9v375.6c0,20.4-16.5,36.9-36.9,36.9h-40c20.4,0,36.9-16.5,36.9-36.9v-375.6
		c0-20.4-16.5-36.9-36.9-36.9h40C151.6-465.8,168.2-449.3,168.2-428.9"/>
</g>
<path id="path7089" class="st3" d="M50,419.9h582.7V50.6H50V419.9z"/>
<path id="path7091" class="st4" d="M590.9,419.9h41.8V50.6h-41.8V419.9z"/>
<g id="g7093" transform="translate(423.98,23.9395)">
	<path id="path7095" class="st5" d="M141.3,626.8c-7.9,8.8-17.4,15.4-28.4,18.9c-12.1,3.9-24.7,3.9-37.4,0.5
		c-28.8-7.7-57.3-32.8-77.5-68.7c-7.4,4.1-15.9,6.4-24.9,6.4c-14.5,0-27.5-5.9-36.9-15.5c-2.5-2.6-5.4-4.6-8.6-6
		c-3.2-1.4-6.7-2.2-10.2-2.2c-7.1,0-13.9,3-18.8,8.1c-9.4,9.6-22.4,15.5-36.9,15.5c-9,0-17.5-2.3-24.9-6.4
		c-29.1,51.7-75.4,81-114.9,68.2c-11-3.6-20.5-10.1-28.4-18.9c-16.9-18.9-26.1-48.4-26.1-82.1c0-20.2,3.3-41.8,10.4-63.6
		c21.2-65.7,69-110.8,113.2-110.6H44.2c2.8,0,5.6,0.2,8.4,0.5c41.7,5.2,84.7,48.6,104.6,110.1C175.9,539.3,168.3,596.6,141.3,626.8"
		/>
</g>
<g id="g7097" transform="translate(435.8198,133.2305)">
	<path id="path7099" class="st6" d="M145.3,371.8c18.8,58.2,11.2,115.5-15.8,145.7c-7.9,8.8-17.4,15.4-28.4,18.9
		c-12.1,3.9-24.7,3.9-37.4,0.5c11-3.6,20.5-10.1,28.3-18.9c27-30.3,34.6-87.5,15.8-145.7C86.6,306.8,39,261.7-5.2,261.7h45.9
		C82.4,267,125.4,310.4,145.3,371.8"/>
</g>
<g id="g7101" transform="translate(224.6401,91.0098)">
	<path id="path7103" class="st1" d="M74.9,470.3c-7.8,8.4-20.2,10-29.8,4.6c-1.6-0.9-3.2-2.1-4.6-3.4c-9.8-9.2-10.4-24.6-1.2-34.4
		c1.8-1.9,3.7-3.4,5.9-4.6c9-5.1,20.6-4,28.5,3.4C83.5,445,84,460.5,74.9,470.3"/>
</g>
<g id="g7105" transform="translate(224.6401,91.0098)">
	<path id="path7107" class="st2" d="M74.9,470.3c-7.8,8.4-20.2,10-29.8,4.6c2.1-1.2,4.1-2.7,5.9-4.6c9.2-9.9,8.6-25.3-1.2-34.4
		c-1.4-1.3-3-2.5-4.6-3.4c9-5.1,20.6-4,28.5,3.4C83.5,445,84,460.5,74.9,470.3"/>
</g>
<g id="g7109" transform="translate(313.8799,91.0098)">
	<path id="path7111" class="st1" d="M104.6,470.3c-7.8,8.4-20.2,10-29.8,4.6c-1.6-0.9-3.2-2.1-4.6-3.4c-9.8-9.2-10.4-24.6-1.2-34.4
		c1.8-1.9,3.7-3.4,5.9-4.6c9-5.1,20.6-4,28.5,3.4C113.2,445,113.8,460.5,104.6,470.3"/>
</g>
<g id="g7113" transform="translate(313.8799,91.0098)">
	<path id="path7115" class="st2" d="M104.6,470.3c-7.8,8.4-20.2,10-29.8,4.6c2.1-1.2,4.1-2.7,5.9-4.6c9.2-9.9,8.6-25.3-1.2-34.4
		c-1.4-1.3-3-2.5-4.6-3.4c9-5.1,20.6-4,28.5,3.4C113.2,445,113.8,460.5,104.6,470.3"/>
</g>
<g id="g7117" transform="translate(319.2529,216.1689)">
	<path id="path7119" class="st7" d="M106.4,178.3l-26.7,75.5H-35.9l-26.7-75.5H106.4z"/>
</g>
<g id="g7121" transform="translate(293.333,216.1689)">
	<path id="path7123" class="st8" d="M97.8,178.3l-26.7,75.5h34.6l26.7-75.5H97.8z"/>
</g>
<g id="g7149" transform="translate(91.501,167.001)">
	<path id="path7151" class="st9" d="M30.5,293h-75.1c-20.4,0-36.9-16.5-36.9-37V-120c0-20.4,16.5-37,36.9-37H544
		c20.4,0,36.9,16.6,36.9,37v82.5"/>
</g>
<g id="g7153" transform="translate(504.5029,380.2021)">
	<path id="path7155" class="st9" d="M168.2-204.5V42.8c0,20.4-16.5,37-36.9,37H56.2"/>
</g>
<g id="g7157" transform="translate(134.4907,474.4551)">
	<path id="path7159" class="st9" d="M44.8-424.4h453.4v369.9H393.1"/>
</g>
<g id="g7161" transform="translate(116.3364,197.0449)">
	<path id="path7163" class="st9" d="M38.8,222.9H-66.4V-147h82.3"/>
</g>
<g id="g7165" transform="translate(237.457,216.1689)">
	<path id="path7167" class="st9" d="M79.2,178.3H-22.7c-44.2-0.2-92,44.9-113.2,110.6c-18.8,58.2-11.2,115.5,15.8,145.7
		c7.9,8.8,17.4,15.4,28.4,18.9c39.5,12.8,85.8-16.5,114.9-68.2c7.4,4.1,15.9,6.4,24.9,6.4c14.5,0,27.5-5.9,36.9-15.5
		c5-5.1,11.7-8.1,18.8-8.1c7.1,0,13.9,3,18.8,8.1c9.4,9.6,22.4,15.5,36.9,15.5c9,0,17.5-2.3,24.9-6.4c29.1,51.7,75.4,81,114.9,68.2
		c11-3.6,20.5-10.1,28.4-18.9c27-30.3,34.6-87.5,15.8-145.7c-21.2-65.7-69-110.8-113.2-110.6H125.9"/>
</g>
<g id="g7169" transform="translate(223.7144,116.8408)">
	<path id="path7171" class="st10" d="M74.6,410c-9.8-9.2-25.2-8.6-34.4,1.2c-9.2,9.8-8.6,25.3,1.2,34.4c9.8,9.2,25.2,8.6,34.4-1.2
		C85,434.6,84.4,419.2,74.6,410z"/>
</g>
<g id="g7173" transform="translate(312.9546,116.8408)">
	<path id="path7175" class="st10" d="M104.3,410c-9.8-9.2-25.2-8.6-34.4,1.2c-9.2,9.8-8.6,25.3,1.2,34.4c9.8,9.2,25.2,8.6,34.4-1.2
		C114.7,434.6,114.2,419.2,104.3,410z"/>
</g>
<g id="g7177" transform="translate(152.1572,172.001)">
	<path id="path7179" class="st9" d="M50.7,281.3v60"/>
</g>
<g id="g7181" transform="translate(174.6309,149.4971)">
	<path id="path7183" class="st9" d="M58.2,333.8H-1.7"/>
</g>
<g id="g7185" transform="translate(359.6465,126.9932)">
	<path id="path7187" class="st9" d="M119.9,386.3L119.9,386.3"/>
</g>
<g id="g7189" transform="translate(359.6465,172.001)">
	<path id="path7191" class="st9" d="M119.9,281.3L119.9,281.3"/>
</g>
<g id="g7193" transform="translate(337.1729,149.4971)">
	<path id="path7195" class="st9" d="M112.4,333.8L112.4,333.8"/>
</g>
<g id="g7197" transform="translate(382.1201,149.4971)">
	<path id="path7199" class="st9" d="M127.4,333.8L127.4,333.8"/>
</g>
<g id="g7201" transform="translate(319.2529,216.1689)">
	<path id="path7203" class="st10" d="M106.4,178.3l-26.7,75.5H-35.9l-26.7-75.5"/>
</g>
<g>
	<path class="st11" d="M293.3,104.5c35.3,0,70.6,0,105.9,0c0,5.5,0,11,0,16.5c-11.9,0-23.8,0-35.7,0c0,6,0,11.9,0,17.9
		c-5.5,0-11,0-16.5,0c-0.5,0-0.9,0-1.4,0c0-0.5,0-0.9,0-1.4c0-5.5,0-11,0-16.5c-17.4,0-34.8,0-52.2,0
		C293.3,115.4,293.3,110,293.3,104.5z"/>
</g>
<g>
	<path class="st12" d="M399.2,121c0,6,0,11.9,0,17.9c6,0,11.9,0,17.9,0c0,6,0,11.9,0,17.9c5.5,0,11,0,16.5,0c0,17.4,0,34.8,0,52.2
		c-22.9,0-45.9,0-68.8,0c0.4-5.8,0-11.3-1.4-16.5c-5.2-1.4-10.7-1.8-16.5-1.4c0-17.4,0-34.8,0-52.2c5.5,0,11,0,16.5,0
		c0-6,0-11.9,0-17.9C375.4,121,387.3,121,399.2,121z"/>
</g>
<g>
	<path class="st13" d="M293.3,121c17.4,0,34.8,0,52.2,0c0,5.5,0,11,0,16.5c-17.4,0-34.8,0-52.2,0C293.3,131.9,293.3,126.5,293.3,121
		z"/>
</g>
<g>
	<path class="st14" d="M399.2,121c6,0,11.9,0,17.9,0c0,6,0,11.9,0,17.9c-6,0-11.9,0-17.9,0C399.2,132.9,399.2,126.9,399.2,121z"/>
</g>
<g>
	<path class="st15" d="M239.7,138.8c5.5,0,11,0,16.5,0c-0.4,6.2,0,12.2,1.4,17.9c5.5,0,11,0,16.5,0c0,6,0,11.9,0,17.9
		c-23.4,0-46.8,0-70.2,0c0-6,0-11.9,0-17.9c11.9,0,23.8,0,35.7,0C239.7,150.8,239.7,144.8,239.7,138.8z"/>
</g>
<g>
	<path class="st16" d="M293.3,104.5c0,5.5,0,11,0,16.5c0,5.5,0,11,0,16.5c0,0.9-0.5,1.4-1.4,1.4c0-5.5,0-11,0-16.5
		c-11.4,0-22.9,0-34.4,0c0,5.5,0,11,0,16.5c0,0.5,0,0.9,0,1.4c0,5.1,0,10.1,0,15.1c0,0.5,0,0.9,0,1.4c-1.4-5.7-1.8-11.7-1.4-17.9
		c0-6,0-11.9,0-17.9c11.9,0,23.8,0,35.7,0C291.5,115.2,292,109.7,293.3,104.5z"/>
</g>
<g>
	<path class="st17" d="M292,138.8c-11.4,0-22.9,0-34.4,0c0-5.5,0-11,0-16.5c11.4,0,22.9,0,34.4,0C292,127.8,292,133.4,292,138.8z"/>
</g>
<g>
	<path class="st18" d="M417.1,138.8c6,0,11.9,0,17.9,0c0,6,0,11.9,0,17.9c-0.5,0-0.9,0-1.4,0c-5.5,0-11,0-16.5,0
		C417.1,150.8,417.1,144.8,417.1,138.8z"/>
</g>
<g>
	<path class="st19" d="M257.6,140.2c11.9,0,23.8,0,35.7,0c0,5.1,0,10.1,0,15.1c-11.9,0-23.8,0-35.7,0
		C257.6,150.3,257.6,145.3,257.6,140.2z"/>
</g>
<g>
	<path class="st20" d="M293.3,137.5c17.4,0,34.8,0,52.2,0c0,0.5,0,0.9,0,1.4c-5.5,0-11,0-16.5,0c-1.4,17.7-1.8,35.5-1.4,53.7
		c6,0,11.9,0,17.9,0c0,6,0,11.9,0,17.9c6,0,11.9,0,17.9,0c0,5.5,0,11,0,16.5c-6,0-11.9,0-17.9,0c0,6,0,11.9,0,17.9
		c-6,0-11.9,0-17.9,0c-11.4,0-22.9,0-34.4,0c0-5.5,0-11,0-16.5c5.8,0.4,11.3,0,16.5-1.4c0-11.4,0-22.9,0-34.4
		c-5.2-1.4-10.7-1.8-16.5-1.4c0.4-5.8,0-11.3-1.4-16.5c-5.5,0-11,0-16.5,0c0.4-6.2,0-12.2-1.4-17.9c-5.5,0-11,0-16.5,0
		c0-0.5,0-0.9,0-1.4c11.9,0,23.8,0,35.7,0c0-5.1,0-10.1,0-15.1c-11.9,0-23.8,0-35.7,0c0-0.5,0-0.9,0-1.4c11.4,0,22.9,0,34.4,0
		C292.9,138.8,293.3,138.4,293.3,137.5z"/>
</g>
<g>
	<path class="st21" d="M329.1,138.8c0,17.4,0,34.8,0,52.2c5.5,0,11,0,16.5,0c0,0.5,0,0.9,0,1.4c-6,0-11.9,0-17.9,0
		C327.3,174.4,327.7,156.5,329.1,138.8z"/>
</g>
<g>
	<path class="st22" d="M329.1,138.8c5.5,0,11,0,16.5,0c0,17.4,0,34.8,0,52.2c-5.5,0-11,0-16.5,0
		C329.1,173.7,329.1,156.2,329.1,138.8z"/>
</g>
<g>
	<path class="st23" d="M345.6,138.8c0.5,0,0.9,0,1.4,0c0,17.4,0,34.8,0,52.2c5.8-0.4,11.3,0,16.5,1.4c-5.5,0-11,0-16.5,0
		c-0.5,0-0.9,0-1.4,0c0-0.5,0-0.9,0-1.4C345.6,173.7,345.6,156.2,345.6,138.8z"/>
</g>
<g>
	<path class="st24" d="M399.2,158.1c5.7-1.4,11.7-1.8,17.9-1.4c0,11.9,0,23.8,0,35.7c-6.2,0.4-12.2,0-17.9-1.4c5.5,0,11,0,16.5,0
		c0-11,0-22,0-33C410.3,158.1,404.7,158.1,399.2,158.1z"/>
</g>
<g>
	<path class="st25" d="M435,156.7c6,0,11.9,0,17.9,0c0,17.4,0,34.8,0,52.2c5.2,1.4,10.7,1.8,16.5,1.4c0,5.5,0,11,0,16.5
		c-34.8,0-69.7,0-104.5,0c0-5.5,0-11,0-16.5c23.4,0,46.8,0,70.2,0C435,192.5,435,174.6,435,156.7z"/>
</g>
<g>
	<path class="st17" d="M399.2,158.1c5.5,0,11,0,16.5,0c0,11,0,22,0,33c-5.5,0-11,0-16.5,0C399.2,180.1,399.2,169.1,399.2,158.1z"/>
</g>
<g>
	<path class="st26" d="M275.5,174.6c5.5,0,11,0,16.5,0c0,6,0,11.9,0,17.9c-5.5,0-11,0-16.5,0C275.5,186.5,275.5,180.5,275.5,174.6z"
		/>
</g>
<g>
	<path class="st27" d="M274.1,156.7c1.4,5.7,1.8,11.7,1.4,17.9c0,6,0,11.9,0,17.9c5.5,0,11,0,16.5,0c0.5,0,0.9,0,1.4,0
		c0,6,0,11.9,0,17.9c-0.5,0-0.9,0-1.4,0c-5.5,0-11,0-16.5,0c-1.4,5.2-1.8,10.7-1.4,16.5c-17.4,0-34.8,0-52.2,0c0-5.5,0-11,0-16.5
		c-6,0-11.9,0-17.9,0c0-11.9,0-23.8,0-35.7c23.4,0,46.8,0,70.2,0C274.1,168.6,274.1,162.7,274.1,156.7z"/>
</g>
<g>
	<path class="st22" d="M187.4,174.6c5.5,0,11,0,16.5,0c0,11.9,0,23.8,0,35.7c0,5.5,0,11,0,16.5c0,0.5,0,0.9,0,1.4
		c-5.1,0-10.1,0-15.1,0C187.4,210.6,187,192.7,187.4,174.6z"/>
</g>
<g>
	<path class="st28" d="M292,174.6c1.4,5.2,1.8,10.7,1.4,16.5c5.8-0.4,11.3,0,16.5,1.4c-5.5,0-11,0-16.5,0c-0.5,0-0.9,0-1.4,0
		C292,186.5,292,180.5,292,174.6z"/>
</g>
<g>
	<path class="st29" d="M347,192.5c5.5,0,11,0,16.5,0c0,5.5,0,11,0,16.5c-5.5,0-11,0-16.5,0C347,203.5,347,198,347,192.5z"/>
</g>
<g>
	<path class="st30" d="M293.3,192.5c5.5,0,11,0,16.5,0c0,11.4,0,22.9,0,34.4c-5.5,0-11,0-16.5,0c0-5.5,0-11,0-16.5
		C293.3,204.4,293.3,198.5,293.3,192.5z"/>
</g>
<g>
	<path class="st31" d="M345.6,192.5c0.5,0,0.9,0,1.4,0c0,5.5,0,11,0,16.5c5.5,0,11,0,16.5,0c0,0.5,0,0.9,0,1.4c-6,0-11.9,0-17.9,0
		C345.6,204.4,345.6,198.5,345.6,192.5z"/>
</g>
<g>
	<path class="st32" d="M433.6,156.7c0.5,0,0.9,0,1.4,0c0,17.9,0,35.7,0,53.7c-23.4,0-46.8,0-70.2,0c-0.5,0-0.9,0-1.4,0
		c0-0.5,0-0.9,0-1.4c0-5.5,0-11,0-16.5c1.4,5.2,1.8,10.7,1.4,16.5c22.9,0,45.9,0,68.8,0C433.6,191.6,433.6,174.2,433.6,156.7z"/>
</g>
<g>
	<path class="st33" d="M203.9,210.4c6,0,11.9,0,17.9,0c0,5.5,0,11,0,16.5c-6,0-11.9,0-17.9,0C203.9,221.3,203.9,215.9,203.9,210.4z"
		/>
</g>
<g>
	<path class="st19" d="M275.5,210.4c5.5,0,11,0,16.5,0c0,5.5,0,11,0,16.5c-5.5,0-11,0-16.5,0C275.5,221.3,275.5,215.9,275.5,210.4z"
		/>
</g>
<g>
	<path class="st34" d="M275.5,210.4c0,5.5,0,11,0,16.5c0,0.5,0,0.9,0,1.4c0,5.5,0,11,0,16.5c-0.5,0-0.9,0-1.4,0c0-5.5,0-11,0-16.5
		c-17.4,0-34.8,0-52.2,0c-0.5,0-0.9,0-1.4,0c-5.5,0-11,0-16.5,0c0-0.5,0-0.9,0-1.4c6,0,11.9,0,17.9,0c17.4,0,34.8,0,52.2,0
		C273.7,221.1,274.1,215.6,275.5,210.4z"/>
</g>
<g>
	<path class="st35" d="M292,210.4c0.5,0,0.9,0,1.4,0c0,5.5,0,11,0,16.5c5.5,0,11,0,16.5,0c-5.2,1.4-10.7,1.8-16.5,1.4
		c0,5.5,0,11,0,16.5c-0.5,0-0.9,0-1.4,0c0-5.5,0-11,0-16.5c-5.5,0-11,0-16.5,0c0-0.5,0-0.9,0-1.4c5.5,0,11,0,16.5,0
		C292,221.3,292,215.9,292,210.4z"/>
</g>
<g>
	<path class="st36" d="M363.5,210.4c0.5,0,0.9,0,1.4,0c0,5.5,0,11,0,16.5c34.8,0,69.7,0,104.5,0c0,0.5,0,0.9,0,1.4
		c-35.3,0-70.6,0-105.9,0c0-0.5,0-0.9,0-1.4C363.5,221.3,363.5,215.9,363.5,210.4z"/>
</g>
<g>
	<path class="st37" d="M363.5,228.2c35.3,0,70.6,0,105.9,0c0,5.5,0,11,0,16.5c-35.3,0-70.6,0-105.9,0
		C363.5,239.3,363.5,233.7,363.5,228.2z"/>
</g>
<g>
	<path class="st19" d="M221.8,228.2c17.4,0,34.8,0,52.2,0c0,5.5,0,11,0,16.5c-17.4,0-34.8,0-52.2,0
		C221.8,239.3,221.8,233.7,221.8,228.2z"/>
</g>
<g>
	<path class="st38" d="M275.5,228.2c5.5,0,11,0,16.5,0c0,5.5,0,11,0,16.5c-5.5,0-11,0-16.5,0C275.5,239.3,275.5,233.7,275.5,228.2z"
		/>
</g>
<g>
	<path class="st39" d="M363.5,226.9c0,0.5,0,0.9,0,1.4c-5.5,0-11,0-16.5,0c0,5.5,0,11,0,16.5c-0.5,0-0.9,0-1.4,0c0-6,0-11.9,0-17.9
		C351.6,226.9,357.5,226.9,363.5,226.9z"/>
</g>
<g>
	<path class="st40" d="M203.9,228.2c5.5,0,11,0,16.5,0c0,5.5,0,11,0,16.5c-5.5,0-11,0-16.5,0C203.9,239.3,203.9,233.7,203.9,228.2z"
		/>
</g>
<g>
	<path class="st17" d="M363.5,228.2c0,5.5,0,11,0,16.5c-5.5,0-11,0-16.5,0c0-5.5,0-11,0-16.5C352.5,228.2,358,228.2,363.5,228.2z"/>
</g>
<g>
	<path class="st41" d="M469.4,228.2c6,0,11.9,0,17.9,0c0,5.5,0,11,0,16.5c-6,0-11.9,0-17.9,0C469.4,239.3,469.4,233.7,469.4,228.2z"
		/>
</g>
<g>
	<path class="st42" d="M220.4,228.2c0.5,0,0.9,0,1.4,0c0,5.5,0,11,0,16.5c0,0.5,0,0.9,0,1.4c-6.2,0.4-12.2,0-17.9-1.4
		c5.5,0,11,0,16.5,0C220.4,239.3,220.4,233.7,220.4,228.2z"/>
</g>
<g>
	<path class="st43" d="M275.5,298.4c29.4,0,58.7,0,88,0c0,6,0,11.9,0,17.9c-29.4,0-58.7,0-88,0C275.5,310.3,275.5,304.4,275.5,298.4
		z"/>
</g>
<g>
	<path class="st44" d="M451.5,280.5c0.5,0,0.9,0,1.4,0c5.5,0,11,0,16.5,0c-1,1.2-2.4,1.7-4.1,1.4c-4.1,0-8.3,0-12.4,0
		c0,5.5,0,11,0,16.5c-29.4,0-58.7,0-88,0c0-0.5,0-0.9,0-1.4c28.9,0,57.8,0,86.7,0c0-5.1,0-10.1,0-15.1
		C451.5,281.4,451.5,281,451.5,280.5z"/>
</g>
<g>
	<path class="st30" d="M451.5,281.9c0,5.1,0,10.1,0,15.1c-28.9,0-57.8,0-86.7,0c0-5.1,0-10.1,0-15.1
		C393.8,281.9,422.6,281.9,451.5,281.9z"/>
</g>
<g>
	<path class="st25" d="M239.7,281.9c11.4,0,22.9,0,34.4,0c0,5.5,0,11,0,16.5c-11.4,0-22.9,0-34.4,0
		C239.7,292.9,239.7,287.4,239.7,281.9z"/>
</g>
<g>
	<path class="st45" d="M363.5,280.5c0.5,0,0.9,0,1.4,0c28.9,0,57.8,0,86.7,0c0,0.5,0,0.9,0,1.4c-28.9,0-57.8,0-86.7,0
		c0,5.1,0,10.1,0,15.1c0,0.5,0,0.9,0,1.4c-0.5,0-0.9,0-1.4,0C363.5,292.4,363.5,286.4,363.5,280.5z"/>
</g>
<g>
	<path class="st46" d="M239.7,281.9c0-0.5,0-0.9,0-1.4c11.9,0,23.8,0,35.7,0c0,6,0,11.9,0,17.9c-0.5,0-0.9,0-1.4,0
		c0-5.5,0-11,0-16.5C262.6,281.9,251.2,281.9,239.7,281.9z"/>
</g>
<g>
	<path class="st47" d="M345.6,262.6c6,0,11.9,0,17.9,0c0,6,0,11.9,0,17.9c-6,0-11.9,0-17.9,0C345.6,274.5,345.6,268.6,345.6,262.6z"
		/>
</g>
<g>
	<path class="st48" d="M363.5,262.6c29.8,0,59.6,0,89.4,0c0,6,0,11.9,0,17.9c-0.5,0-0.9,0-1.4,0c0-5.5,0-11,0-16.5
		c-28.9,0-57.8,0-86.7,0c0,5.5,0,11,0,16.5c-0.5,0-0.9,0-1.4,0C363.5,274.5,363.5,268.6,363.5,262.6z"/>
</g>
<g>
	<path class="st49" d="M451.5,280.5c-28.9,0-57.8,0-86.7,0c0-5.5,0-11,0-16.5c28.9,0,57.8,0,86.7,0
		C451.5,269.5,451.5,275,451.5,280.5z"/>
</g>
<g>
	<path class="st50" d="M327.7,244.7c6,0,11.9,0,17.9,0c0,0.5,0,0.9,0,1.4c-5.5,0-11,0-16.5,0c0,5.5,0,11,0,16.5
		C327.8,257,327.3,251,327.7,244.7z"/>
</g>
<g>
	<path class="st22" d="M221.8,246.1c17.4,0,34.8,0,52.2,0c0,5.5,0,11,0,16.5c-11.7-0.4-23.2,0-34.4,1.4c0,5.5,0,11,0,16.5
		c-6,0-11.9,0-17.9,0C221.8,269,221.8,257.6,221.8,246.1z"/>
</g>
<g>
	<path class="st51" d="M363.5,244.7c35.3,0,70.6,0,105.9,0c0,11.9,0,23.8,0,35.7c-5.5,0-11,0-16.5,0c0-6,0-11.9,0-17.9
		c-29.8,0-59.6,0-89.4,0C363.5,256.7,363.5,250.7,363.5,244.7z"/>
</g>
<g>
	<path class="st52" d="M345.6,244.7c0.5,0,0.9,0,1.4,0c5.5,0,11,0,16.5,0c0,6,0,11.9,0,17.9c-6,0-11.9,0-17.9,0c0-5.5,0-11,0-16.5
		C345.6,245.6,345.6,245.2,345.6,244.7z"/>
</g>
<g>
	<path class="st17" d="M345.6,246.1c0,5.5,0,11,0,16.5c-5.5,0-11,0-16.5,0c0-5.5,0-11,0-16.5C334.6,246.1,340.1,246.1,345.6,246.1z"
		/>
</g>
<g>
	<path class="st53" d="M292,244.7c0.5,0,0.9,0,1.4,0c11.4,0,22.9,0,34.4,0c-0.4,6.2,0,12.2,1.4,17.9c5.5,0,11,0,16.5,0
		c0,6,0,11.9,0,17.9c6,0,11.9,0,17.9,0c0,6,0,11.9,0,17.9c-29.4,0-58.7,0-88,0c0-6,0-11.9,0-17.9c-11.9,0-23.8,0-35.7,0
		c0-5.5,0-11,0-16.5c11.9,0,23.8,0,35.7,0c0-6,0-11.9,0-17.9C281.3,246.5,286.7,246.1,292,244.7z"/>
</g>
<g>
	<path class="st54" d="M221.8,246.1c0-0.5,0-0.9,0-1.4c17.4,0,34.8,0,52.2,0c0.5,0,0.9,0,1.4,0c5.5,0,11,0,16.5,0
		c-5.2,1.4-10.7,1.8-16.5,1.4c0,6,0,11.9,0,17.9c-11.9,0-23.8,0-35.7,0c11.2-1.4,22.7-1.8,34.4-1.4c0-5.5,0-11,0-16.5
		C256.7,246.1,239.3,246.1,221.8,246.1z"/>
</g>
</svg>
