<svg height="512" viewBox="0 0 512 512" width="512" xmlns="http://www.w3.org/2000/svg"><g id="FILLED_OUTLINE"><path d="m296 104h-80l-32 112h144z" fill="#ededed"/><path d="m72 400h368v96h-368z" fill="#e28160"/><ellipse cx="256" cy="400" fill="#f49971" rx="184" ry="48"/><path d="m396.494 243.097h-109.27l-31.224-99.097-31.224 99.097h-109.27l86.893 66.56-34.538 98.343 88.139-60.571 88.139 60.571-34.538-98.343z" fill="#f9cd75"/><path d="m256 24a40 40 0 0 0 -40 40v40h80v-40a40 40 0 0 0 -40-40z" fill="#689cda"/><path d="m208 56h96v16h-96z" fill="#5791d6"/><path d="m454.05886 24h.00005a33.94109 33.94109 0 0 1 33.94109 33.94109 33.9411 33.9411 0 0 1 -9.94112 24l-46.05888 46.05891-48-48 46.05888-46.05888a33.9411 33.9411 0 0 1 23.99998-9.94112z" fill="#689cda"/><path d="m444 20.402h16v79.196h-16z" fill="#5791d6" transform="matrix(.707 -.707 .707 .707 89.961 337.186)"/><path d="m384 80-64 32 64 104 48-88z" fill="#ededed"/><path d="m80 216v-16h-16v-16h-16v16h-16v16h16v16h16v-16z" fill="#ffc8bb"/><path d="m128 288h-16v-16h-16v16h-16v16h16v16h16v-16h16z" fill="#ffc8bb"/><path d="m48 320h-16v16h-16v16h16v16h16v-16h16v-16h-16z" fill="#ffc8bb"/><path d="m480 192v-16h-16v16h-16v16h16v16h16v-16h16v-16z" fill="#ffc8bb"/><path d="m424 256h-16v16h-16v16h16v16h16v-16h16v-16h-16z" fill="#ffc8bb"/><path d="m480 320h-16v16h-16v16h16v16h16v-16h16v-16h-16z" fill="#ffc8bb"/><path d="m57.94114 24a33.94109 33.94109 0 0 0 -33.94114 33.94109 33.9411 33.9411 0 0 0 9.94112 24l46.05888 46.05891 48-48-46.05888-46.05888a33.9411 33.9411 0 0 0 -23.99998-9.94112z" fill="#689cda"/><path d="m20.402 52h79.196v16h-79.196z" fill="#5791d6" transform="matrix(.707 -.707 .707 .707 -24.853 60.004)"/><path d="m128 80-48 48 48 88 64-104z" fill="#ededed"/><g fill="#473a37"><path d="m160.31348 405.34912a7.99994 7.99994 0 0 0 12.0791 9.24414l83.60742-57.45752 83.60742 57.45752a7.99994 7.99994 0 0 0 12.0791-9.24414l-32.61425-92.86963 82.28711-63.03174a8.00046 8.00046 0 0 0 -4.86524-14.35107h-103.40332l-29.46094-93.501a7.99962 7.99962 0 0 0 -15.25976 0l-29.46094 93.501h-103.40332a8.00046 8.00046 0 0 0 -4.86524 14.35107l82.28711 63.03174zm-21.208-154.25244h85.6709a7.999 7.999 0 0 0 7.62988-5.5957l23.59374-74.88037 23.59375 74.88039a7.999 7.999 0 0 0 7.62988 5.5957h85.6709l-68.1582 52.209a8.00067 8.00067 0 0 0 -2.68262 9.002l26.415 75.21679-67.9375-46.689a8.00117 8.00117 0 0 0 -9.0625 0l-67.9375 46.689 26.415-75.21679a8.00067 8.00067 0 0 0 -2.68262-9.002z"/><path d="m353.2627 351.14307-2.5254 15.7998c59.6211 9.53027 81.2627 24.99072 81.2627 33.05713 0 5.08887-10.09082 16.334-47.91211 26.2002-34.1123 8.89892-79.60156 13.7998-128.08789 13.7998s-93.97559-4.90088-128.08789-13.7998c-37.82129-9.8662-47.91211-21.11133-47.91211-26.2002 0-8.06641 21.6416-23.52686 81.2627-33.05713l-2.5254-15.7998c-35.38183 5.65576-94.7373 19.52393-94.7373 48.85693v96h16v-71.91577q14.98534 10.04169 43.87305 17.5979c35.39355 9.23287 82.31738 14.31787 132.12695 14.31787s96.7334-5.085 132.127-14.31787q28.87025-7.5315 43.873-17.5979v71.91577h16v-96c0-29.333-59.35547-43.20117-94.7373-48.85693z"/><path d="m208 102.87891-31.69238 110.92334 15.38476 4.3955 30.34229-106.19775h67.93066l30.34229 106.19775 15.38476-4.3955-31.69238-110.92334v-30.87891h16v-16h-16.67944a47.99044 47.99044 0 0 0 -94.64112 0h-16.67944v16h16zm80-6.87891h-64v-24h64zm-32-64a32.05723 32.05723 0 0 1 30.9873 24h-61.9746a32.05723 32.05723 0 0 1 30.9873-24z"/><path d="m379.26074 73.42529-62.83886 31.41944 7.15624 14.31054 58.842-29.42114 39.68994 39.68994-45.1335 82.74493 14.04688 7.6621 47.44873-86.98925 37.52759-37.52808 6.343 6.343 11.31446-11.31348-6.5669-6.567a41.93382 41.93382 0 0 0 -58.86694-58.86683l-6.56616-6.56616-11.31445 11.31344 6.343 6.343zm52.73926 43.26071-36.68652-36.686 32.68628-32.68628 36.686 36.686zm22.05859-84.686a25.95111 25.95111 0 0 1 21.59034 40.33508l-35.98438-35.98449a25.75621 25.75621 0 0 1 14.39404-4.35059z"/><path d="m64 232v-16h16v-16h-16v-16h-16v16h-16v16h16v16z"/><path d="m112 320v-16h16v-16h-16v-16h-16v16h-16v16h16v16z"/><path d="m64 352v-16h-16v-16h-16v16h-16v16h16v16h16v-16z"/><path d="m480 176h-16v16h-16v16h16v16h16v-16h16v-16h-16z"/><path d="m424 304v-16h16v-16h-16v-16h-16v16h-16v16h16v16z"/><path d="m480 320h-16v16h-16v16h16v16h16v-16h16v-16h-16z"/><path d="m18.34277 90.34326 11.31446 11.31348 6.343-6.343 37.5276 37.52806 47.44873 86.98925 14.04688-7.6621-45.13355-82.74488 39.68994-39.68994 58.84205 29.42114 7.15624-14.31054-62.83886-31.41944-37.425-37.42553 6.343-6.343-11.31449-11.3135-6.56616 6.56616a41.93376 41.93376 0 0 0 -58.86694 58.86683zm98.34375-10.34326-36.68652 36.686-32.68579-32.68624 36.686-36.686zm-84.68652-22.05908a25.952 25.952 0 0 1 40.33545-21.59033l-35.98438 35.98449a25.75712 25.75712 0 0 1 -4.35107-14.39416z"/></g></g></svg>