<?xml version="1.0" encoding="UTF-8" standalone="no"?>
<!-- Created with Inkscape (http://www.inkscape.org/) -->

<svg
   version="1.1"
   id="svg4836"
   xml:space="preserve"
   width="682.66669"
   height="682.66669"
   viewBox="0 0 682.66669 682.66669"
   xmlns="http://www.w3.org/2000/svg"
   xmlns:svg="http://www.w3.org/2000/svg"><defs
     id="defs4840"><clipPath
       clipPathUnits="userSpaceOnUse"
       id="clipPath4850"><path
         d="M 0,512 H 512 V 0 H 0 Z"
         id="path4848" /></clipPath></defs><g
     id="g4842"
     transform="matrix(1.3333333,0,0,-1.3333333,0,682.66667)"><g
       id="g4844"><g
         id="g4846"
         clip-path="url(#clipPath4850)"><g
           id="g4852"
           transform="translate(484.7168,369.1211)"><path
             d="m 0,0 h -50.333 c -10.926,0 -19.783,-8.857 -19.783,-19.783 v -305.324 c 0,-10.926 8.857,-19.784 19.783,-19.784 H 0 c 10.926,0 19.783,8.858 19.783,19.784 V -19.783 C 19.783,-8.857 10.926,0 0,0"
             style="fill:#bd9cde;fill-opacity:1;fill-rule:nonzero;stroke:none"
             id="path4854" /></g><g
           id="g4856"
           transform="translate(444.6006,44.0137)"><path
             d="m 0,0 v 305.324 c 0,10.926 8.857,19.783 19.783,19.783 h -30 C -21.143,325.107 -30,316.25 -30,305.324 V 0 c 0,-10.926 8.857,-19.783 19.783,-19.783 h 30 C 8.857,-19.783 0,-10.926 0,0"
             style="fill:#8c5ac5;fill-opacity:1;fill-rule:nonzero;stroke:none"
             id="path4858" /></g><g
           id="g4860"
           transform="translate(77.6162,221.459)"><path
             d="m 0,0 h -50.333 c -10.926,0 -19.783,-8.856 -19.783,-19.782 v -157.663 c 0,-10.926 8.857,-19.784 19.783,-19.784 H 0 c 10.926,0 19.783,8.858 19.783,19.784 V -19.782 C 19.783,-8.856 10.926,0 0,0"
             style="fill:#ffabcd;fill-opacity:1;fill-rule:nonzero;stroke:none"
             id="path4862" /></g><g
           id="g4864"
           transform="translate(37.5,44.0137)"><path
             d="m 0,0 v 157.663 c 0,10.926 8.857,19.782 19.783,19.782 h -30 C -21.143,177.445 -30,168.589 -30,157.663 V 0 c 0,-10.926 8.857,-19.783 19.783,-19.783 h 30 C 8.857,-19.783 0,-10.926 0,0"
             style="fill:#ff5d9c;fill-opacity:1;fill-rule:nonzero;stroke:none"
             id="path4866" /></g><g
           id="g4868"
           transform="translate(213.3164,270.6797)"><path
             d="m 0,0 h -50.333 c -10.926,0 -19.783,-8.856 -19.783,-19.783 v -206.883 c 0,-10.926 8.857,-19.783 19.783,-19.783 H 0 c 10.926,0 19.783,8.857 19.783,19.783 V -19.783 C 19.783,-8.856 10.926,0 0,0"
             style="fill:#f4e74d;fill-opacity:1;fill-rule:nonzero;stroke:none"
             id="path4870" /></g><g
           id="g4872"
           transform="translate(173.2002,44.0137)"><path
             d="m 0,0 v 206.883 c 0,10.926 8.857,19.783 19.783,19.783 h -30 C -21.143,226.666 -30,217.809 -30,206.883 V 0 c 0,-10.926 8.857,-19.783 19.783,-19.783 h 30 C 8.857,-19.783 0,-10.926 0,0"
             style="fill:#f8ad3e;fill-opacity:1;fill-rule:nonzero;stroke:none"
             id="path4874" /></g><g
           id="g4876"
           transform="translate(349.0166,319.9004)"><path
             d="m 0,0 h -50.333 c -10.926,0 -19.783,-8.857 -19.783,-19.783 v -256.104 c 0,-10.925 8.857,-19.783 19.783,-19.783 H 0 c 10.926,0 19.783,8.858 19.783,19.783 V -19.783 C 19.783,-8.857 10.926,0 0,0"
             style="fill:#ff7f5a;fill-opacity:1;fill-rule:nonzero;stroke:none"
             id="path4878" /></g><g
           id="g4880"
           transform="translate(308.9004,44.0137)"><path
             d="m 0,0 v 256.104 c 0,10.925 8.857,19.783 19.783,19.783 h -30 C -21.143,275.887 -30,267.029 -30,256.104 V 0 c 0,-10.926 8.857,-19.783 19.783,-19.783 h 30 C 8.857,-19.783 0,-10.926 0,0"
             style="fill:#ff5d29;fill-opacity:1;fill-rule:nonzero;stroke:none"
             id="path4882" /></g><g
           id="g4884"
           transform="translate(80.0073,349.123)"><path
             d="m 0,0 c 7.676,-1.929 15.434,-3.636 23.291,-4.891 25.261,-4.311 50.983,-5.633 76.611,-4.002 50.629,3.226 100.326,17.234 145.723,39.756 4.691,2.297 9.341,4.747 13.992,7.308 l 18.305,-18.307 c 4.253,-4.252 11.535,-1.889 12.48,4.05 l 15.069,94.675 c 1.853,11.637 -8.199,21.688 -19.836,19.836 l -94.675,-15.07 c -5.939,-0.945 -8.301,-8.226 -4.049,-12.479 L 201.306,96.48 C 194.185,91.614 186.809,86.989 179.232,82.674 161.044,72.265 141.739,63.669 121.764,56.903 91.479,46.647 59.852,42.083 27.936,42.146 21.323,42.159 14.719,42.565 8.104,43.165 1.02,43.808 -5.435,39.076 -6.956,32.127 L -10.33,16.712 C -11.96,9.267 -7.391,1.858 0,0"
             style="fill:#00d7bd;fill-opacity:1;fill-rule:nonzero;stroke:none"
             id="path4886" /></g><g
           id="g4888"
           transform="translate(414.6006,263.4033)"><path
             d="m 0,0 v -219.39 c 0,-10.925 8.857,-19.783 19.783,-19.783 h 50.333 c 10.926,0 19.783,8.858 19.783,19.783 V 85.935 c 0,10.925 -8.857,19.783 -19.783,19.783 H 19.783 C 8.857,105.718 0,96.86 0,85.935 V 29.776"
             style="fill:none;stroke:#000000;stroke-width:15;stroke-linecap:round;stroke-linejoin:round;stroke-miterlimit:10;stroke-dasharray:none;stroke-opacity:1"
             id="path4890" /></g><g
           id="g4892"
           transform="translate(77.6162,221.459)"><path
             d="m 0,0 h -50.333 c -10.926,0 -19.783,-8.856 -19.783,-19.782 v -157.663 c 0,-10.926 8.857,-19.784 19.783,-19.784 H 0 c 10.926,0 19.783,8.858 19.783,19.784 V -19.782 C 19.783,-8.856 10.926,0 0,0 Z"
             style="fill:none;stroke:#000000;stroke-width:15;stroke-linecap:round;stroke-linejoin:round;stroke-miterlimit:10;stroke-dasharray:none;stroke-opacity:1"
             id="path4894" /></g><g
           id="g4896"
           transform="translate(143.2007,94.8945)"><path
             d="m 0,0 v -50.881 c 0,-10.926 8.857,-19.783 19.783,-19.783 h 50.333 c 10.926,0 19.783,8.857 19.783,19.783 v 206.883 c 0,10.926 -8.857,19.783 -19.783,19.783 H 19.783 C 8.857,175.785 0,166.928 0,156.002 V 29.874"
             style="fill:none;stroke:#000000;stroke-width:15;stroke-linecap:round;stroke-linejoin:round;stroke-miterlimit:10;stroke-dasharray:none;stroke-opacity:1"
             id="path4898" /></g><g
           id="g4900"
           transform="translate(349.0166,319.9004)"><path
             d="m 0,0 h -50.333 c -10.926,0 -19.783,-8.857 -19.783,-19.783 v -256.104 c 0,-10.925 8.857,-19.783 19.783,-19.783 H 0 c 10.926,0 19.783,8.858 19.783,19.783 V -19.783 C 19.783,-8.857 10.926,0 0,0 Z"
             style="fill:none;stroke:#000000;stroke-width:15;stroke-linecap:round;stroke-linejoin:round;stroke-miterlimit:10;stroke-dasharray:none;stroke-opacity:1"
             id="path4902" /></g><g
           id="g4904"
           transform="translate(80.0073,349.123)"><path
             d="m 0,0 c 7.676,-1.929 15.434,-3.636 23.291,-4.891 25.261,-4.311 50.984,-5.633 76.611,-4.002 50.629,3.226 100.326,17.234 145.723,39.756 4.691,2.297 9.341,4.747 13.992,7.308 l 18.305,-18.307 c 4.253,-4.252 11.535,-1.889 12.48,4.05 l 15.069,94.675 c 1.853,11.637 -8.199,21.688 -19.836,19.836 l -94.675,-15.07 c -5.939,-0.945 -8.301,-8.226 -4.049,-12.479 L 201.306,96.48 C 194.185,91.614 186.809,86.989 179.233,82.674 161.044,72.265 141.739,63.669 121.764,56.903 91.479,46.647 59.853,42.083 27.936,42.146 21.323,42.159 14.719,42.565 8.105,43.165 1.02,43.808 -5.434,39.076 -6.956,32.127 L -10.33,16.712 C -11.959,9.267 -7.391,1.858 0,0 Z"
             style="fill:none;stroke:#000000;stroke-width:15;stroke-linecap:round;stroke-linejoin:round;stroke-miterlimit:10;stroke-dasharray:none;stroke-opacity:1"
             id="path4906" /></g></g></g></g></svg>
