<svg id="Layer_1" enable-background="new 0 0 512 512" viewBox="0 0 512 512" xmlns="http://www.w3.org/2000/svg"><g><g><g><g><path clip-rule="evenodd" d="m323.088 305.111-102.301 59.064c-.955.551-2.048.551-3.003 0-.955-.552-1.501-1.498-1.501-2.6v-118.13c0-1.103.546-2.049 1.501-2.6s2.048-.551 3.003 0l102.301 59.065c.956.551 1.501 1.498 1.501 2.6.001 1.103-.546 2.05-1.501 2.601z" fill="#6cf5c2" fill-rule="evenodd"/></g><g><path clip-rule="evenodd" d="m323.088 305.111-102.301 59.064c-.955.551-2.048.551-3.003 0-.955-.552-1.501-1.498-1.501-2.6v-6.346l86.805-50.117c.955-.551 1.501-1.498 1.501-2.601s-.546-2.049-1.501-2.6l-86.805-50.118v-6.347c0-1.103.546-2.049 1.501-2.6s2.048-.551 3.003 0l102.301 59.065c.956.551 1.501 1.498 1.501 2.6.001 1.102-.546 2.049-1.501 2.6z" fill="#00e499" fill-rule="evenodd"/></g></g><g><g><path clip-rule="evenodd" d="m76.388 180.206-32.437-33.348c-.769-.79-1.037-1.85-.737-2.911s1.084-1.823 2.152-2.094l133.628-33.83c1.425-.361 2.827.036 3.852 1.089 1.024 1.054 1.382 2.466.982 3.88l-37.516 132.64c-.3 1.061-1.084 1.823-2.153 2.094-1.069.27-2.121-.027-2.889-.817l-26.917-27.673c-13.58 29.405-17.857 62.342-11.949 94.772 15.703 86.21 98.302 143.354 184.511 127.651 86.21-15.703 143.354-98.302 127.651-184.511-8.525-46.801-31.543-76.595-66.502-101.862-9.795-7.079-12.448-20.451-6.097-30.733l2.997-4.852c3.485-5.641 8.6-9.19 15.105-10.478 6.505-1.287 12.586.044 17.957 3.933 46.122 33.391 76.44 74.339 87.438 134.72 20.821 114.303-54.975 223.861-169.279 244.681-114.303 20.822-223.86-54.974-244.681-169.277-9.012-49.475-.107-99.963 24.884-143.074z" fill="#8ac9fe" fill-rule="evenodd"/></g><g><path clip-rule="evenodd" d="m163.987 111.822 15.007-3.799c1.425-.361 2.827.036 3.852 1.089 1.024 1.054 1.382 2.466.982 3.88l-37.516 132.64c-.3 1.061-1.084 1.823-2.153 2.094-1.069.27-2.121-.027-2.889-.817l-11.868-12.201 34.426-121.715c.111-.393.163-.786.159-1.171zm-49.634 107.414-14.143-14.54c-13.58 29.405-23.714 76.882-17.807 109.312 14.567 79.975 86.707 134.925 165.891 129.919-71.026-4.514-132.561-56.74-145.89-129.919-4.48-27.463-5.104-55.249 11.949-94.772zm240.161-108.208c1.718-.808 3.572-1.411 5.555-1.804 6.505-1.287 12.586.044 17.957 3.933 46.122 33.391 76.44 74.339 87.438 134.72 20.821 114.303-54.975 223.861-169.279 244.681-16.184 2.948-32.272 3.955-48.027 3.194 9.28-.438 18.636-1.484 28.027-3.194 114.303-20.82 190.099-130.378 169.279-244.681-10.999-60.381-41.316-101.329-87.438-134.72-1.139-.826-2.312-1.535-3.512-2.129z" fill="#60b7ff" fill-rule="evenodd"/></g></g><g><g><path clip-rule="evenodd" d="m292.841 49.959v98.013c0 18.703-15.255 33.959-33.959 33.959-19.502 0-35.406-14.019-35.406-33.959v-98.013c0-18.704 15.255-33.959 33.959-33.959 19.502 0 35.406 14.02 35.406 33.959z" fill="#fe646f" fill-rule="evenodd"/></g><g><path clip-rule="evenodd" d="m292.841 49.959v98.013c0 18.703-15.255 33.959-33.959 33.959-1.768 0-3.506-.117-5.206-.341 16.448-2.342 29.165-16.541 29.165-33.618v-98.013c0-18.132-13.152-31.367-30.201-33.618 1.567-.223 3.168-.341 4.795-.341 19.502 0 35.406 14.02 35.406 33.959z" fill="#fd4755" fill-rule="evenodd"/></g></g></g><g><path clip-rule="evenodd" d="m251.558 147.251v-96.566c0-4.419 3.577-8 8-8 4.424 0 8.001 3.582 8.001 8v96.567c0 4.424-3.577 8.001-8.001 8.001-4.423-.001-8-3.578-8-8.002zm-18.684-97.286v98.007c0 14.801 11.766 25.959 27.39 25.959 14.307 0 25.978-11.648 25.978-25.959v-98.007c0-14.801-11.812-25.959-27.39-25.959-14.353-.001-25.978 11.638-25.978 25.959zm27.39 139.967c23.155 0 41.979-18.82 41.979-41.96v-98.007c0-23.922-18.684-41.96-43.391-41.96-23.154 0-41.979 18.82-41.979 41.96v98.007c0 23.921 18.637 41.96 43.391 41.96zm-34.59 62.174 87.3 50.408-87.3 50.408zm-12.001 121.598c1.224.72 2.636 1.068 4 1.068 1.365 0 2.777-.348 4-1.068l111.302-64.258c2.494-1.431 4-4.071 4-6.933 0-2.861-1.506-5.501-4-6.932l-111.302-64.259c-2.447-1.431-5.506-1.431-8.001 0-2.447 1.421-4 4.071-4 6.923v128.526c.001 2.862 1.554 5.503 4.001 6.933zm82.453 110.991c109.796-20.001 182.836-125.59 162.882-235.381-9.977-54.71-35.956-94.703-84.288-129.67-3.577-2.579-7.389-3.421-11.718-2.57-4.283.857-7.53 3.087-9.836 6.829l-3.012 4.861c-4.189 6.758-2.447 15.38 4 20.039 40.003 28.91 61.463 61.877 69.699 106.911 7.953 43.796-1.6 88.076-26.919 124.677-25.319 36.61-63.393 61.162-107.207 69.144-43.767 7.977-88.053-1.581-124.667-26.901-36.614-25.333-61.133-63.393-69.134-107.193-6.165-33.946-1.836-68.376 12.566-99.555 1.082-2.395 3.294-4.094 5.883-4.532 2.635-.442 5.271.419 7.106 2.311l20.895 21.47 33.273-117.65-118.551 29.997 26.402 27.15c2.494 2.57 3.012 6.49 1.224 9.591-24.049 41.48-32.567 90.35-23.955 137.628 20.001 109.791 125.561 182.831 235.357 162.844zm178.6-238.251c-10.636-58.281-39.391-102.689-90.595-139.76-7.201-5.191-15.53-7.022-24.237-5.299-8.66 1.708-15.672 6.589-20.331 14.119l-3.012 4.852c-8.471 13.747-4.895 31.946 8.236 41.419 36.849 26.646 55.816 55.599 63.298 96.811 14.872 81.719-39.485 160.317-121.232 175.207-39.579 7.21-79.582-1.431-112.713-24.322-33.085-22.886-55.251-57.298-62.498-96.901-4.848-26.769-2.495-53.867 6.824-79.055l22.072 22.698c2.024 2.052 4.942 2.88 7.718 2.179 2.777-.697 4.942-2.828 5.742-5.582l40.803-144.306c.8-2.753.047-5.713-1.977-7.761-1.977-2.052-4.894-2.871-7.671-2.169l-145.421 36.799c-2.729.701-4.941 2.828-5.694 5.582-.8 2.748-.047 5.708 1.929 7.76l31.908 32.788c-23.672 43.603-31.767 94.209-22.825 143.21 19.154 105.301 111.302 179.292 214.744 179.283 12.942-.014 26.025-1.163 39.202-3.563 118.502-21.578 197.284-135.52 175.73-253.989z" fill="#242222" fill-rule="evenodd"/></g></g></svg>