<?xml version="1.0" encoding="utf-8"?>
<!-- Generator: Adobe Illustrator 21.1.0, SVG Export Plug-In . SVG Version: 6.00 Build 0)  -->
<svg version="1.1" id="Слой_1" xmlns="http://www.w3.org/2000/svg" xmlns:xlink="http://www.w3.org/1999/xlink" x="0px" y="0px"
	 viewBox="0 0 1024 1024" style="enable-background:new 0 0 1024 1024;" xml:space="preserve">
<style type="text/css">
	.st0{opacity:0.999;fill:#70D86C;enable-background:new    ;}
	.st1{fill:#543946;}
	.st2{fill:#FAFAF7;}
	.st3{fill:#F5FA2E;}
	.st4{fill:#553C48;}
	.st5{fill:#543A47;}
	.st6{fill:#817F58;}
	.st7{fill:#533746;}
	.st8{fill:#563C49;}
	.st9{fill:#F8FE2D;}
	.st10{fill:#F8F026;}
	.st11{fill:#92793D;}
	.st12{fill:#533846;}
	.st13{fill:#CFC5C8;}
	.st14{fill:#866D79;}
	.st15{fill:#523846;}
	.st16{fill:#543947;}
	.st17{fill:#F8F9E6;}
	.st18{fill:#BDAE32;}
	.st19{fill:#533847;}
	.st20{fill:#523745;}
	.st21{fill:#957D3D;}
	.st22{fill:#C9BFC0;}
	.st23{fill:#F7FC2F;}
	.st24{fill:#E6E174;}
	.st25{fill:#A99839;}
	.st26{fill:#A75247;}
	.st27{fill:#FC684B;}
	.st28{fill:#513646;}
	.st29{fill:#8A733D;}
	.st30{fill:#523646;}
	.st31{fill:#553745;}
	.st32{fill:#5D6B49;}
	.st33{fill:#543845;}
	.st34{fill:#524847;}
	.st35{fill:#7E4449;}
	.st36{fill:#865840;}
	.st37{fill:#593A46;}
	.st38{fill:#CD584B;}
	.st39{fill:#FD684B;}
	.st40{fill:#966F3B;}
	.st41{fill:#573946;}
	.st42{fill:#F5664B;}
	.st43{fill:#F8C12C;}
	.st44{fill:#A98638;}
</style>
<g>
	<path class="st0" d="M171.5-0.5c226.7,0,453.3,0,680,0c83.7,12.8,138.8,59.5,165.5,140c2.6,10.7,4.8,21.4,6.5,32
		c0,226.7,0,453.3,0,680c-12.3,82.1-57.6,136.9-136,164.5c-12,3.4-24,5.9-36,7.5c-226.7,0-453.3,0-680,0
		c-69.8-9.8-120.9-45.8-153.5-108c-9.6-20.5-15.7-41.8-18.5-64c0-226.7,0-453.3,0-680C10.6,96.8,50.6,44,119.5,13
		C136.4,6.3,153.7,1.8,171.5-0.5z"/>
</g>
<g>
	<path class="st1" d="M414,255.8c82.4,0,164.7,0,247.1,0c0,12.8,0,25.7,0,38.5c-27.8,0-55.6,0-83.4,0c0,13.9,0,27.8,0,41.7
		c-12.8,0-25.7,0-38.5,0c-1.1,0-2.1,0-3.2,0c0-1.1,0-2.1,0-3.2c0-12.8,0-25.7,0-38.5c-40.7,0-81.3,0-121.9,0
		C414,281.4,414,268.6,414,255.8z"/>
</g>
<g>
	<path class="st2" d="M661.1,294.3c0,13.9,0,27.8,0,41.7c13.9,0,27.8,0,41.7,0c0,13.9,0,27.8,0,41.7c12.8,0,25.7,0,38.5,0
		c0,40.7,0,81.3,0,121.9c-53.5,0-107,0-160.5,0c1-13.5-0.1-26.3-3.2-38.5c-12.2-3.2-25-4.2-38.5-3.2c0-40.7,0-81.3,0-121.9
		c12.8,0,25.7,0,38.5,0c0-13.9,0-27.8,0-41.7C605.5,294.3,633.3,294.3,661.1,294.3z"/>
</g>
<g>
	<path class="st3" d="M414,294.3c40.7,0,81.3,0,121.9,0c0,12.8,0,25.7,0,38.5c-40.7,0-81.3,0-121.9,0C414,319.9,414,307.1,414,294.3
		z"/>
</g>
<g>
	<path class="st4" d="M661.1,294.3c13.9,0,27.8,0,41.7,0c0,13.9,0,27.8,0,41.7c-13.9,0-27.8,0-41.7,0
		C661.1,322.1,661.1,308.2,661.1,294.3z"/>
</g>
<g>
	<path class="st5" d="M288.8,336c12.8,0,25.7,0,38.5,0c-1,14.5,0,28.5,3.2,41.7c12.8,0,25.7,0,38.5,0c0,13.9,0,27.8,0,41.7
		c-54.6,0-109.1,0-163.7,0c0-13.9,0-27.8,0-41.7c27.8,0,55.6,0,83.4,0C288.8,363.8,288.8,349.9,288.8,336z"/>
</g>
<g>
	<path class="st6" d="M414,255.8c0,12.8,0,25.7,0,38.5s0,25.7,0,38.5c0,2.1-1.1,3.2-3.2,3.2c0-12.8,0-25.7,0-38.5
		c-26.7,0-53.5,0-80.2,0c0,12.8,0,25.7,0,38.5c0,1.1,0,2.1,0,3.2c0,11.8,0,23.5,0,35.3c0,1.1,0,2.1,0,3.2
		c-3.2-13.3-4.2-27.2-3.2-41.7c0-13.9,0-27.8,0-41.7c27.8,0,55.6,0,83.4,0C409.8,280.8,410.8,268,414,255.8z"/>
</g>
<g>
	<path class="st7" d="M410.8,336c-26.7,0-53.5,0-80.2,0c0-12.8,0-25.7,0-38.5c26.7,0,53.5,0,80.2,0
		C410.8,310.3,410.8,323.2,410.8,336z"/>
</g>
<g>
	<path class="st8" d="M702.8,336c13.9,0,27.8,0,41.7,0c0,13.9,0,27.8,0,41.7c-1.1,0-2.1,0-3.2,0c-12.8,0-25.7,0-38.5,0
		C702.8,363.8,702.8,349.9,702.8,336z"/>
</g>
<g>
	<path class="st9" d="M330.6,339.2c27.8,0,55.6,0,83.4,0c0,11.8,0,23.5,0,35.3c-27.8,0-55.6,0-83.4,0
		C330.6,362.7,330.6,351,330.6,339.2z"/>
</g>
<g>
	<path class="st10" d="M414,332.8c40.7,0,81.3,0,121.9,0c0,1.1,0,2.1,0,3.2c-12.8,0-25.7,0-38.5,0c-3.2,41.2-4.3,82.9-3.2,125.2
		c13.9,0,27.8,0,41.7,0c0,13.9,0,27.8,0,41.7c13.9,0,27.8,0,41.7,0c0,12.8,0,25.7,0,38.5c-13.9,0-27.8,0-41.7,0
		c0,13.9,0,27.8,0,41.7c-13.9,0-27.8,0-41.7,0c-26.7,0-53.5,0-80.2,0c0-12.8,0-25.7,0-38.5c13.5,1,26.3-0.1,38.5-3.2
		c0-26.7,0-53.5,0-80.2c-12.2-3.2-25-4.2-38.5-3.2c1-13.5-0.1-26.3-3.2-38.5c-12.8,0-25.7,0-38.5,0c1-14.5,0-28.5-3.2-41.7
		c-12.8,0-25.7,0-38.5,0c0-1.1,0-2.1,0-3.2c27.8,0,55.6,0,83.4,0c0-11.8,0-23.5,0-35.3c-27.8,0-55.6,0-83.4,0c0-1.1,0-2.1,0-3.2
		c26.7,0,53.5,0,80.2,0C412.9,336,414,334.9,414,332.8z"/>
</g>
<g>
	<path class="st11" d="M497.4,336c0,40.7,0,81.3,0,121.9c12.8,0,25.7,0,38.5,0c0,1.1,0,2.1,0,3.2c-13.9,0-27.8,0-41.7,0
		C493.2,418.9,494.2,377.1,497.4,336z"/>
</g>
<g>
	<path class="st12" d="M497.4,336c12.8,0,25.7,0,38.5,0c0,40.7,0,81.3,0,121.9c-12.8,0-25.7,0-38.5,0
		C497.4,417.3,497.4,376.6,497.4,336z"/>
</g>
<g>
	<path class="st13" d="M536,336c1.1,0,2.1,0,3.2,0c0,40.7,0,81.3,0,121.9c13.5-1,26.3,0.1,38.5,3.2c-12.8,0-25.7,0-38.5,0
		c-1.1,0-2.1,0-3.2,0c0-1.1,0-2.1,0-3.2C536,417.3,536,376.6,536,336z"/>
</g>
<g>
	<path class="st14" d="M661.1,380.9c13.3-3.2,27.2-4.2,41.7-3.2c0,27.8,0,55.6,0,83.4c-14.5,1-28.5,0-41.7-3.2c12.8,0,25.7,0,38.5,0
		c0-25.7,0-51.3,0-77C686.8,380.9,673.9,380.9,661.1,380.9z"/>
</g>
<g>
	<path class="st15" d="M744.6,377.7c13.9,0,27.8,0,41.7,0c0,40.7,0,81.3,0,121.9c12.2,3.2,25,4.2,38.5,3.2c0,12.8,0,25.7,0,38.5
		c-81.3,0-162.6,0-243.9,0c0-12.8,0-25.7,0-38.5c54.6,0,109.1,0,163.7,0C744.6,461.2,744.6,419.4,744.6,377.7z"/>
</g>
<g>
	<path class="st7" d="M661.1,380.9c12.8,0,25.7,0,38.5,0c0,25.7,0,51.3,0,77c-12.8,0-25.7,0-38.5,0
		C661.1,432.3,661.1,406.6,661.1,380.9z"/>
</g>
<g>
	<path class="st16" d="M372.3,419.4c12.8,0,25.7,0,38.5,0c0,13.9,0,27.8,0,41.7c-12.8,0-25.7,0-38.5,0
		C372.3,447.2,372.3,433.3,372.3,419.4z"/>
</g>
<g>
	<path class="st17" d="M369.1,377.7c3.2,13.3,4.2,27.2,3.2,41.7c0,13.9,0,27.8,0,41.7c12.8,0,25.7,0,38.5,0c1.1,0,2.1,0,3.2,0
		c0,13.9,0,27.8,0,41.7c-1.1,0-2.1,0-3.2,0c-12.8,0-25.7,0-38.5,0c-3.2,12.2-4.2,25-3.2,38.5c-40.7,0-81.3,0-121.9,0
		c0-12.8,0-25.7,0-38.5c-13.9,0-27.8,0-41.7,0c0-27.8,0-55.6,0-83.4c54.6,0,109.1,0,163.7,0C369.1,405.5,369.1,391.6,369.1,377.7z"
		/>
</g>
<g>
	<path class="st12" d="M166.9,419.4c12.8,0,25.7,0,38.5,0c0,27.8,0,55.6,0,83.4c0,12.8,0,25.7,0,38.5c0,1.1,0,2.1,0,3.2
		c-11.8,0-23.5,0-35.3,0C166.9,503.4,165.8,461.7,166.9,419.4z"/>
</g>
<g>
	<path class="st18" d="M410.8,419.4c3.2,12.2,4.2,25,3.2,38.5c13.5-1,26.3,0.1,38.5,3.2c-12.8,0-25.7,0-38.5,0c-1.1,0-2.1,0-3.2,0
		C410.8,447.2,410.8,433.3,410.8,419.4z"/>
</g>
<g>
	<path class="st19" d="M539.2,461.2c12.8,0,25.7,0,38.5,0c0,12.8,0,25.7,0,38.5c-12.8,0-25.7,0-38.5,0
		C539.2,486.8,539.2,474,539.2,461.2z"/>
</g>
<g>
	<path class="st20" d="M414,461.2c12.8,0,25.7,0,38.5,0c0,26.7,0,53.5,0,80.2c-12.8,0-25.7,0-38.5,0c0-12.8,0-25.7,0-38.5
		C414,489,414,475.1,414,461.2z"/>
</g>
<g>
	<path class="st21" d="M536,461.2c1.1,0,2.1,0,3.2,0c0,12.8,0,25.7,0,38.5c12.8,0,25.7,0,38.5,0c0,1.1,0,2.1,0,3.2
		c-13.9,0-27.8,0-41.7,0C536,489,536,475.1,536,461.2z"/>
</g>
<g>
	<path class="st22" d="M741.3,377.7c1.1,0,2.1,0,3.2,0c0,41.7,0,83.4,0,125.2c-54.6,0-109.1,0-163.7,0c-1.1,0-2.1,0-3.2,0
		c0-1.1,0-2.1,0-3.2c0-12.8,0-25.7,0-38.5c3.2,12.2,4.2,25,3.2,38.5c53.5,0,107,0,160.5,0C741.3,459,741.3,418.4,741.3,377.7z"/>
</g>
<g>
	<path class="st23" d="M205.4,502.9c13.9,0,27.8,0,41.7,0c0,12.8,0,25.7,0,38.5c-13.9,0-27.8,0-41.7,0
		C205.4,528.5,205.4,515.7,205.4,502.9z"/>
</g>
<g>
	<path class="st9" d="M372.3,502.9c12.8,0,25.7,0,38.5,0c0,12.8,0,25.7,0,38.5c-12.8,0-25.7,0-38.5,0
		C372.3,528.5,372.3,515.7,372.3,502.9z"/>
</g>
<g>
	<path class="st24" d="M372.3,502.9c0,12.8,0,25.7,0,38.5c0,1.1,0,2.1,0,3.2c0,12.8,0,25.7,0,38.5c-1.1,0-2.1,0-3.2,0
		c0-12.8,0-25.7,0-38.5c-40.7,0-81.3,0-121.9,0c-1.1,0-2.1,0-3.2,0c-12.8,0-25.7,0-38.5,0c0-1.1,0-2.1,0-3.2c13.9,0,27.8,0,41.7,0
		c40.7,0,81.3,0,121.9,0C368.1,527.9,369.1,515.1,372.3,502.9z"/>
</g>
<g>
	<path class="st25" d="M410.8,502.9c1.1,0,2.1,0,3.2,0c0,12.8,0,25.7,0,38.5c12.8,0,25.7,0,38.5,0c-12.2,3.2-25,4.2-38.5,3.2
		c0,12.8,0,25.7,0,38.5c-1.1,0-2.1,0-3.2,0c0-12.8,0-25.7,0-38.5c-12.8,0-25.7,0-38.5,0c0-1.1,0-2.1,0-3.2c12.8,0,25.7,0,38.5,0
		C410.8,528.5,410.8,515.7,410.8,502.9z"/>
</g>
<g>
	<path class="st26" d="M577.7,502.9c1.1,0,2.1,0,3.2,0c0,12.8,0,25.7,0,38.5c81.3,0,162.6,0,243.9,0c0,1.1,0,2.1,0,3.2
		c-82.4,0-164.7,0-247.1,0c0-1.1,0-2.1,0-3.2C577.7,528.5,577.7,515.7,577.7,502.9z"/>
</g>
<g>
	<path class="st27" d="M577.7,544.6c82.4,0,164.7,0,247.1,0c0,12.8,0,25.7,0,38.5c-82.4,0-164.7,0-247.1,0
		C577.7,570.3,577.7,557.4,577.7,544.6z"/>
</g>
<g>
	<path class="st9" d="M247.1,544.6c40.7,0,81.3,0,121.9,0c0,12.8,0,25.7,0,38.5c-40.7,0-81.3,0-121.9,0
		C247.1,570.3,247.1,557.4,247.1,544.6z"/>
</g>
<g>
	<path class="st28" d="M372.3,544.6c12.8,0,25.7,0,38.5,0c0,12.8,0,25.7,0,38.5c-12.8,0-25.7,0-38.5,0
		C372.3,570.3,372.3,557.4,372.3,544.6z"/>
</g>
<g>
	<path class="st29" d="M577.7,541.4c0,1.1,0,2.1,0,3.2c-12.8,0-25.7,0-38.5,0c0,12.8,0,25.7,0,38.5c-1.1,0-2.1,0-3.2,0
		c0-13.9,0-27.8,0-41.7C549.9,541.4,563.8,541.4,577.7,541.4z"/>
</g>
<g>
	<path class="st30" d="M205.4,544.6c12.8,0,25.7,0,38.5,0c0,12.8,0,25.7,0,38.5c-12.8,0-25.7,0-38.5,0
		C205.4,570.3,205.4,557.4,205.4,544.6z"/>
</g>
<g>
	<path class="st7" d="M577.7,544.6c0,12.8,0,25.7,0,38.5c-12.8,0-25.7,0-38.5,0c0-12.8,0-25.7,0-38.5
		C552,544.6,564.8,544.6,577.7,544.6z"/>
</g>
<g>
	<path class="st31" d="M824.8,544.6c13.9,0,27.8,0,41.7,0c0,12.8,0,25.7,0,38.5c-13.9,0-27.8,0-41.7,0
		C824.8,570.3,824.8,557.4,824.8,544.6z"/>
</g>
<g>
	<path class="st32" d="M243.9,544.6c1.1,0,2.1,0,3.2,0c0,12.8,0,25.7,0,38.5c0,1.1,0,2.1,0,3.2c-14.5,1-28.5,0-41.7-3.2
		c12.8,0,25.7,0,38.5,0C243.9,570.3,243.9,557.4,243.9,544.6z"/>
</g>
<g>
	<path class="st33" d="M372.3,708.3c68.5,0,136.9,0,205.4,0c0,13.9,0,27.8,0,41.7c-68.5,0-136.9,0-205.4,0
		C372.3,736.1,372.3,722.2,372.3,708.3z"/>
</g>
<g>
	<path class="st34" d="M783.1,666.5c1.1,0,2.1,0,3.2,0c12.8,0,25.7,0,38.5,0c-2.3,2.9-5.5,4-9.6,3.2c-9.6,0-19.3,0-28.9,0
		c0,12.8,0,25.7,0,38.5c-68.5,0-136.9,0-205.4,0c0-1.1,0-2.1,0-3.2c67.4,0,134.8,0,202.2,0c0-11.8,0-23.5,0-35.3
		C783.1,668.7,783.1,667.6,783.1,666.5z"/>
</g>
<g>
	<path class="st20" d="M783.1,669.7c0,11.8,0,23.5,0,35.3c-67.4,0-134.8,0-202.2,0c0-11.8,0-23.5,0-35.3
		C648.3,669.7,715.7,669.7,783.1,669.7z"/>
</g>
<g>
	<path class="st15" d="M288.8,669.7c26.7,0,53.5,0,80.2,0c0,12.8,0,25.7,0,38.5c-26.7,0-53.5,0-80.2,0
		C288.8,695.4,288.8,682.6,288.8,669.7z"/>
</g>
<g>
	<path class="st35" d="M577.7,666.5c1.1,0,2.1,0,3.2,0c67.4,0,134.8,0,202.2,0c0,1.1,0,2.1,0,3.2c-67.4,0-134.8,0-202.2,0
		c0,11.8,0,23.5,0,35.3c0,1.1,0,2.1,0,3.2c-1.1,0-2.1,0-3.2,0C577.7,694.4,577.7,680.4,577.7,666.5z"/>
</g>
<g>
	<path class="st36" d="M288.8,669.7c0-1.1,0-2.1,0-3.2c27.8,0,55.6,0,83.4,0c0,13.9,0,27.8,0,41.7c-1.1,0-2.1,0-3.2,0
		c0-12.8,0-25.7,0-38.5C342.3,669.7,315.6,669.7,288.8,669.7z"/>
</g>
<g>
	<path class="st37" d="M536,624.8c13.9,0,27.8,0,41.7,0c0,13.9,0,27.8,0,41.7c-13.9,0-27.8,0-41.7,0C536,652.6,536,638.7,536,624.8z
		"/>
</g>
<g>
	<path class="st38" d="M577.7,624.8c69.5,0,139.1,0,208.6,0c0,13.9,0,27.8,0,41.7c-1.1,0-2.1,0-3.2,0c0-12.8,0-25.7,0-38.5
		c-67.4,0-134.8,0-202.2,0c0,12.8,0,25.7,0,38.5c-1.1,0-2.1,0-3.2,0C577.7,652.6,577.7,638.7,577.7,624.8z"/>
</g>
<g>
	<path class="st39" d="M783.1,666.5c-67.4,0-134.8,0-202.2,0c0-12.8,0-25.7,0-38.5c67.4,0,134.8,0,202.2,0
		C783.1,640.9,783.1,653.7,783.1,666.5z"/>
</g>
<g>
	<path class="st40" d="M494.2,583.1c13.9,0,27.8,0,41.7,0c0,1.1,0,2.1,0,3.2c-12.8,0-25.7,0-38.5,0c0,12.8,0,25.7,0,38.5
		C494.3,611.6,493.2,597.6,494.2,583.1z"/>
</g>
<g>
	<path class="st12" d="M247.1,586.3c40.7,0,81.3,0,121.9,0c0,12.8,0,25.7,0,38.5c-27.3-1-54.1,0-80.2,3.2c0,12.8,0,25.7,0,38.5
		c-13.9,0-27.8,0-41.7,0C247.1,639.8,247.1,613.1,247.1,586.3z"/>
</g>
<g>
	<path class="st41" d="M577.7,583.1c82.4,0,164.7,0,247.1,0c0,27.8,0,55.6,0,83.4c-12.8,0-25.7,0-38.5,0c0-13.9,0-27.8,0-41.7
		c-69.5,0-139.1,0-208.6,0C577.7,610.9,577.7,597,577.7,583.1z"/>
</g>
<g>
	<path class="st42" d="M536,583.1c1.1,0,2.1,0,3.2,0c12.8,0,25.7,0,38.5,0c0,13.9,0,27.8,0,41.7c-13.9,0-27.8,0-41.7,0
		c0-12.8,0-25.7,0-38.5C536,585.2,536,584.2,536,583.1z"/>
</g>
<g>
	<path class="st7" d="M536,586.3c0,12.8,0,25.7,0,38.5c-12.8,0-25.7,0-38.5,0c0-12.8,0-25.7,0-38.5
		C510.3,586.3,523.1,586.3,536,586.3z"/>
</g>
<g>
	<path class="st43" d="M410.8,583.1c1.1,0,2.1,0,3.2,0c26.7,0,53.5,0,80.2,0c-1,14.5,0,28.5,3.2,41.7c12.8,0,25.7,0,38.5,0
		c0,13.9,0,27.8,0,41.7c13.9,0,27.8,0,41.7,0c0,13.9,0,27.8,0,41.7c-68.5,0-136.9,0-205.4,0c0-13.9,0-27.8,0-41.7
		c-27.8,0-55.6,0-83.4,0c0-12.8,0-25.7,0-38.5c27.8,0,55.6,0,83.4,0c0-13.9,0-27.8,0-41.7C385.8,587.3,398.6,586.3,410.8,583.1z"/>
</g>
<g>
	<path class="st44" d="M247.1,586.3c0-1.1,0-2.1,0-3.2c40.7,0,81.3,0,121.9,0c1.1,0,2.1,0,3.2,0c12.8,0,25.7,0,38.5,0
		c-12.2,3.2-25,4.2-38.5,3.2c0,13.9,0,27.8,0,41.7c-27.8,0-55.6,0-83.4,0c26.2-3.2,52.9-4.3,80.2-3.2c0-12.8,0-25.7,0-38.5
		C328.4,586.3,287.8,586.3,247.1,586.3z"/>
</g>
</svg>
